<svg viewBox="0 0 29 37" xmlns="http://www.w3.org/2000/svg" focusable="false" class="text-current fill-current w-[29px], h-[37px]" aria-hidden="true" fill="none" width="29" height="37"><path fill="#39B7BB" stroke="#242B4C" stroke-width="2" d="M15.36 35.215c9.853-14.366 11.682-15.84 11.682-21.12C27.042 6.863 21.212 1 14.021 1 6.83 1 1 6.863 1 14.095c0 5.28 1.829 6.754 11.683 21.12.646.94 2.03.94 2.676 0Z"></path><path fill="#242B4C" d="m8.799 11.863.298-1.15c.014-.048.104-.393.61-.393H18.2c.508 0 .597.345.608.392l.3 1.151H8.799ZM18.8 16.746a5.02 5.02 0 0 1-.857-.219c-.572-.181-1.181-.378-2.24-.378-1.115 0-1.59.211-2.046.412-.27.12-.53.234-1.068.242-.595.008-1.025-.129-1.476-.272-.553-.174-1.13-.354-2.01-.378v-1.318l4.37.002h.962l4.365-.002v1.91Zm-5.526-9.081h1.357l.347 1.7h-2.05l.346-1.7Zm9.058 8.484c-.674 0-1.095.124-1.484.269.15-.733.444-2.18.648-3.172.289-1.383-1.367-1.383-1.367-1.383s-.22-.645-.491-1.573c-.269-.925-1.296-.925-1.296-.925h-2.638l-.53-2.386h-2.443l-.53 2.386h-2.64s-1.023 0-1.293.925c-.27.928-.491 1.573-.491 1.573s-1.657 0-1.37 1.383c.214 1.03.523 2.546.667 3.251-.598.188-1.264.364-2.595.168v1.42c1.574.208 2.365-.04 3.113-.276.402-.128.79-.248 1.317-.248.783 0 1.297.16 1.786.314.564.178 1.101.346 1.91.338.819-.01 1.209-.182 1.617-.362.32-.141.655-.29 1.482-.29.842 0 1.347.159 1.817.311.534.17 1.034.33 1.839.314.848-.014 1.317-.195 1.774-.373.328-.128.647-.252 1.198-.252.547 0 .911.06 1.149.122v-1.44a6.5 6.5 0 0 0-1.149-.094Zm-1.705 3.088c-.334.133-.679.268-1.288.276-.58.012-.976-.116-1.396-.249-.572-.185-1.181-.378-2.24-.378-1.115 0-1.59.211-2.046.41-.27.121-.53.237-1.068.243-.595.008-1.025-.127-1.476-.27-.594-.187-1.216-.383-2.204-.383-.735 0-1.224.153-1.735.317-.624.194-1.289.403-2.695.194v1.425c1.574.208 2.365-.04 3.113-.277.402-.126.79-.248 1.317-.248.783 0 1.297.162 1.786.319.564.174 1.101.344 1.91.334.819-.01 1.209-.18 1.617-.362.32-.142.655-.291 1.482-.291.842 0 1.347.16 1.817.312.534.169 1.034.33 1.839.315.848-.015 1.317-.198 1.774-.375.328-.125.647-.252 1.198-.252.547 0 .911.06 1.149.123v-1.439a6.5 6.5 0 0 0-1.149-.095c-.802 0-1.247.173-1.705.351Z"></path></svg>
